0
SECTION
2
HEADER
9
$INSUNITS
70
4
9
$ACADVER
1
AC1014
9
$HANDSEED
5
FFFF
0
ENDSEC
0
SECTION
2
TABLES
0
TABLE
2
VPORT
5
8
100
AcDbSymbolTable
0
ENDTAB
0
TABLE
2
LTYPE
5
5
100
AcDbSymbolTable
0
LTYPE
5
14
100
AcDbSymbolTableRecord
100
AcDbLinetypeTableRecord
2
BYBLOCK
70
0
0
LTYPE
5
15
100
AcDbSymbolTableRecord
100
AcDbLinetypeTableRecord
2
BYLAYER
70
0
0
ENDTAB
0
TABLE
2
LAYER
5
2
100
AcDbSymbolTable
70
2
0
LAYER
5
50
100
AcDbSymbolTableRecord
100
AcDbLayerTableRecord
2
0
70
0
6
CONTINUOUS
0
ENDTAB
0
TABLE
2
STYLE
5
3
100
AcDbSymbolTable
70
1
0
STYLE
5
11
100
AcDbSymbolTableRecord
100
AcDbTextStyleTableRecord
2
STANDARD
70
0
0
ENDTAB
0
TABLE
2
VIEW
5
6
100
AcDbSymbolTable
70
0
0
ENDTAB
0
TABLE
2
UCS
5
7
100
AcDbSymbolTable
70
0
0
ENDTAB
0
TABLE
2
APPID
5
9
100
AcDbSymbolTable
70
2
0
APPID
5
12
100
AcDbSymbolTableRecord
100
AcDbRegAppTableRecord
2
ACAD
70
0
0
ENDTAB
0
TABLE
2
DIMSTYLE
5
A
100
AcDbSymbolTable
70
1
0
ENDTAB
0
TABLE
2
BLOCK_RECORD
5
1
100
AcDbSymbolTable
70
1
0
BLOCK_RECORD
5
1F
100
AcDbSymbolTableRecord
100
AcDbBlockTableRecord
2
*MODEL_SPACE
0
BLOCK_RECORD
5
1B
100
AcDbSymbolTableRecord
100
AcDbBlockTableRecord
2
*PAPER_SPACE
0
ENDTAB
0
ENDSEC
0
SECTION
2
BLOCKS
0
BLOCK
5
20
100
AcDbEntity
100
AcDbBlockBegin
2
*MODEL_SPACE
0
ENDBLK
5
21
100
AcDbEntity
100
AcDbBlockEnd
0
BLOCK
5
1C
100
AcDbEntity
100
AcDbBlockBegin
2
*PAPER_SPACE
0
ENDBLK
5
1D
100
AcDbEntity
100
AcDbBlockEnd
0
ENDSEC
0
SECTION
2
ENTITIES
0
LINE
5
100
100
AcDbEntity
8
0
100
AcDbLine
10
0.033910563940351135
20
-52.253080558610762
30
0
11
10.033910563940358
21
-34.932572482921969
31
0
0
LINE
5
101
100
AcDbEntity
8
0
100
AcDbLine
10
10.033910563940358
20
-34.932572482921969
30
0
11
5.0339105639403599
21
-34.932572482921969
31
0
0
LINE
5
102
100
AcDbEntity
8
0
100
AcDbLine
10
5.0339105639403599
20
-34.932572482921969
30
0
11
1.3702096691304089
21
-35.012864145518975
31
0
0
LINE
5
103
100
AcDbEntity
8
0
100
AcDbLine
10
1.3702096691304089
20
-35.012864145518975
30
0
11
1.3702096691303112
21
-10.914326615170626
31
0
0
ARC
5
104
100
AcDbEntity
8
0
100
AcDbCircle
10
2.6645352591003757e-14
20
-2.2971377517471262e-15
30
0
40
10.999999999999998
210
-0
220
0
230
1
100
AcDbArc
50
-82.844392202642553
51
82.844392202643036
0
LINE
5
105
100
AcDbEntity
8
0
100
AcDbLine
10
1.3702096691302181
20
10.914326615170637
30
0
11
1.3702096691301784
21
20.910638448000558
31
0
0
ARC
5
106
100
AcDbEntity
8
0
100
AcDbCircle
10
21.370209669160772
20
20.910638447999613
30
0
40
20.000000000021242
210
0
220
0
230
1
100
AcDbArc
50
144.93576838784298
51
180
0
SPLINE
5
107
100
AcDbEntity
8
0
100
AcDbSpline
70
4
71
5
72
26
73
20
74
0
42
0.000000001
43
0.0000000001
44
0.0000000001
40
0
40
0
40
0
40
0
40
0
40
0
40
0.066666666666666666
40
0.13333333333333333
40
0.20000000000000001
40
0.26666666666666666
40
0.33333333333333331
40
0.39999999999999997
40
0.46666666666666662
40
0.53333333333333333
40
0.59999999999999998
40
0.66666666666666663
40
0.73333333333333328
40
0.79999999999999993
40
0.86666666666666659
40
0.93333333333333324
40
1
40
1
40
1
40
1
40
1
40
1
41
1
41
1
41
1
41
1
41
1
41
1
41
1
41
1
41
1
41
1
41
1
41
1
41
1
41
1
41
1
41
1
41
1
41
1
41
1
41
1
10
5.0000392684695001
20
32.400526221741409
30
0
10
5.2545534933708984
20
32.763144233032847
30
0
10
5.7655768262723086
20
33.47124622157159
30
0
10
6.5380976012437451
20
34.481994532931367
30
0
10
7.5663767953251764
20
35.74065178706126
30
0
10
8.7688129673440436
20
37.239575116878605
30
0
10
9.7839487705768917
20
38.750195987150093
30
0
10
10.505203354462619
20
40.341868841575177
30
0
10
10.843719230031647
20
42.042498738781163
30
0
10
10.756011948463426
20
43.801523071834687
30
0
10
10.245504079216373
20
45.49835905103788
30
0
10
9.34796585717406
20
46.979688245748193
30
0
10
8.1241684131586194
20
48.087346909169185
30
0
10
6.6516939995186783
20
48.689647502698364
30
0
10
5.0191024522205474
20
48.714676653267944
30
0
10
3.3148153803694442
20
48.133349768766102
30
0
10
1.9560198119639425
20
47.180404465015833
30
0
10
0.96460474797222617
20
46.194805691004902
30
0
10
0.31898144546783258
20
45.418193429470925
30
0
10
0
20
45.000000670552254
30
0
0
SPLINE
5
108
100
AcDbEntity
8
0
100
AcDbSpline
70
4
71
5
72
26
73
20
74
0
42
0.000000001
43
0.0000000001
44
0.0000000001
40
-1
40
-1
40
-1
40
-1
40
-1
40
-1
40
-0.93333333333333324
40
-0.86666666666666659
40
-0.79999999999999993
40
-0.73333333333333328
40
-0.66666666666666663
40
-0.59999999999999998
40
-0.53333333333333333
40
-0.46666666666666662
40
-0.39999999999999997
40
-0.33333333333333331
40
-0.26666666666666666
40
-0.20000000000000001
40
-0.13333333333333333
40
-0.066666666666666666
40
0
40
0
40
0
40
0
40
0
40
0
41
1
41
1
41
1
41
1
41
1
41
1
41
1
41
1
41
1
41
1
41
1
41
1
41
1
41
1
41
1
41
1
41
1
41
1
41
1
41
1
10
0
20
45.000000670552254
30
0
10
-0.31898144546783258
20
45.418193429470925
30
0
10
-0.96460474797222617
20
46.194805691004902
30
0
10
-1.9560198119639425
20
47.180404465015833
30
0
10
-3.3148153803694442
20
48.133349768766102
30
0
10
-5.0191024522205474
20
48.714676653267944
30
0
10
-6.6516939995186783
20
48.689647502698364
30
0
10
-8.1241684131586194
20
48.087346909169185
30
0
10
-9.34796585717406
20
46.979688245748193
30
0
10
-10.245504079216373
20
45.49835905103788
30
0
10
-10.756011948463426
20
43.801523071834687
30
0
10
-10.843719230031647
20
42.042498738781163
30
0
10
-10.505203354462619
20
40.341868841575177
30
0
10
-9.7839487705768917
20
38.750195987150093
30
0
10
-8.7688129673440436
20
37.239575116878605
30
0
10
-7.5663767953251764
20
35.74065178706126
30
0
10
-6.5380976012437451
20
34.481994532931367
30
0
10
-5.7655768262723086
20
33.47124622157159
30
0
10
-5.2545534933708984
20
32.763144233032847
30
0
10
-5.0000392684695001
20
32.400526221741409
30
0
0
ARC
5
109
100
AcDbEntity
8
0
100
AcDbCircle
10
-21.370209669107005
20
20.910638448000284
30
0
40
19.999999999976826
210
0
220
-0
230
1
100
AcDbArc
50
0
51
35.064231612243987
0
LINE
5
110
100
AcDbEntity
8
0
100
AcDbLine
10
-1.3702096691301802
20
20.910638448000569
30
0
11
-1.3702096691302201
21
10.914326615170635
31
0
0
ARC
5
111
100
AcDbEntity
8
0
100
AcDbCircle
10
2.6645352591003757e-14
20
-2.2971377517471262e-15
30
0
40
11.000000000000007
210
0
220
0
230
1
100
AcDbArc
50
97.155607797357234
51
262.84439220264227
0
LINE
5
112
100
AcDbEntity
8
0
100
AcDbLine
10
-1.3702096691303145
20
-10.914326615170626
30
0
11
-1.3702096691304091
21
-35.012864145518975
31
0
0
LINE
5
113
100
AcDbEntity
8
0
100
AcDbLine
10
-1.3702096691304091
20
-35.012864145518975
30
0
11
-9.9660894360596295
21
-34.932572482921998
31
0
0
LINE
5
114
100
AcDbEntity
8
0
100
AcDbLine
10
-9.9660894360596295
20
-34.932572482921998
30
0
11
0.033910563940351135
21
-52.253080558610762
31
0
0
LINE
5
115
100
AcDbEntity
8
0
100
AcDbLine
10
0.033910563940351135
20
-52.253080558610762
30
0
11
-9.9660894360596295
21
-34.932572482921998
31
0
0
LINE
5
116
100
AcDbEntity
8
0
100
AcDbLine
10
-9.9660894360596295
20
-34.932572482921998
30
0
11
-1.37020966913041
21
-35.012864145518975
31
0
0
LINE
5
117
100
AcDbEntity
8
0
100
AcDbLine
10
-1.37020966913041
20
-35.012864145518975
30
0
11
-1.3702096691303098
21
-10.914326615170623
31
0
0
ARC
5
118
100
AcDbEntity
8
0
100
AcDbCircle
10
2.6645352591003757e-14
20
-2.2971377529763297e-15
30
0
40
11.000000000000007
210
0
220
0
230
1
100
AcDbArc
50
97.155607797357234
51
262.84439220264227
0
LINE
5
119
100
AcDbEntity
8
0
100
AcDbLine
10
-1.3702096691302201
20
10.914326615170635
30
0
11
-1.3702096691301784
21
20.910638448000558
31
0
0
ARC
5
120
100
AcDbEntity
8
0
100
AcDbCircle
10
-21.370209669106984
20
20.910638448000277
30
0
40
19.999999999976804
210
0
220
-0
230
1
100
AcDbArc
50
0
51
35.064231612244029
0
SPLINE
5
121
100
AcDbEntity
8
0
100
AcDbSpline
70
4
71
5
72
26
73
20
74
0
42
0.000000001
43
0.0000000001
44
0.0000000001
40
0
40
0
40
0
40
0
40
0
40
0
40
0.066666666666666666
40
0.13333333333333333
40
0.20000000000000001
40
0.26666666666666666
40
0.33333333333333331
40
0.39999999999999997
40
0.46666666666666662
40
0.53333333333333333
40
0.59999999999999998
40
0.66666666666666663
40
0.73333333333333328
40
0.79999999999999993
40
0.86666666666666659
40
0.93333333333333324
40
1
40
1
40
1
40
1
40
1
40
1
41
1
41
1
41
1
41
1
41
1
41
1
41
1
41
1
41
1
41
1
41
1
41
1
41
1
41
1
41
1
41
1
41
1
41
1
41
1
41
1
10
-5.0000392684695001
20
32.400526221741409
30
0
10
-5.2545534933708984
20
32.763144233032847
30
0
10
-5.7655768262723086
20
33.47124622157159
30
0
10
-6.5380976012437451
20
34.481994532931367
30
0
10
-7.5663767953251764
20
35.74065178706126
30
0
10
-8.7688129673440436
20
37.239575116878605
30
0
10
-9.7839487705768917
20
38.750195987150093
30
0
10
-10.505203354462619
20
40.341868841575177
30
0
10
-10.843719230031647
20
42.042498738781163
30
0
10
-10.756011948463426
20
43.801523071834687
30
0
10
-10.245504079216373
20
45.49835905103788
30
0
10
-9.34796585717406
20
46.979688245748193
30
0
10
-8.1241684131586194
20
48.087346909169185
30
0
10
-6.6516939995186783
20
48.689647502698364
30
0
10
-5.0191024522205474
20
48.714676653267944
30
0
10
-3.3148153803694442
20
48.133349768766102
30
0
10
-1.9560198119639425
20
47.180404465015833
30
0
10
-0.96460474797222617
20
46.194805691004902
30
0
10
-0.31898144546783258
20
45.418193429470925
30
0
10
0
20
45.000000670552254
30
0
0
SPLINE
5
122
100
AcDbEntity
8
0
100
AcDbSpline
70
4
71
5
72
26
73
20
74
0
42
0.000000001
43
0.0000000001
44
0.0000000001
40
0
40
0
40
0
40
0
40
0
40
0
40
0.066666666666666666
40
0.13333333333333333
40
0.20000000000000001
40
0.26666666666666666
40
0.33333333333333331
40
0.39999999999999997
40
0.46666666666666662
40
0.53333333333333333
40
0.59999999999999998
40
0.66666666666666663
40
0.73333333333333328
40
0.79999999999999993
40
0.86666666666666659
40
0.93333333333333324
40
1
40
1
40
1
40
1
40
1
40
1
41
1
41
1
41
1
41
1
41
1
41
1
41
1
41
1
41
1
41
1
41
1
41
1
41
1
41
1
41
1
41
1
41
1
41
1
41
1
41
1
10
5.0000392684695001
20
32.400526221741409
30
0
10
5.2545534933708984
20
32.763144233032847
30
0
10
5.7655768262723086
20
33.47124622157159
30
0
10
6.5380976012437451
20
34.481994532931367
30
0
10
7.5663767953251764
20
35.74065178706126
30
0
10
8.7688129673440436
20
37.239575116878605
30
0
10
9.7839487705768917
20
38.750195987150093
30
0
10
10.505203354462619
20
40.341868841575177
30
0
10
10.843719230031647
20
42.042498738781163
30
0
10
10.756011948463426
20
43.801523071834687
30
0
10
10.245504079216373
20
45.49835905103788
30
0
10
9.34796585717406
20
46.979688245748193
30
0
10
8.1241684131586194
20
48.087346909169185
30
0
10
6.6516939995186783
20
48.689647502698364
30
0
10
5.0191024522205474
20
48.714676653267944
30
0
10
3.3148153803694442
20
48.133349768766102
30
0
10
1.9560198119639425
20
47.180404465015833
30
0
10
0.96460474797222617
20
46.194805691004902
30
0
10
0.31898144546783258
20
45.418193429470925
30
0
10
0
20
45.000000670552254
30
0
0
ARC
5
123
100
AcDbEntity
8
0
100
AcDbCircle
10
21.370209669160843
20
20.910638447999595
30
0
40
20.000000000021313
210
0
220
0
230
1
100
AcDbArc
50
144.93576838784298
51
180
0
LINE
5
124
100
AcDbEntity
8
0
100
AcDbLine
10
1.3702096691302199
20
10.914326615170635
30
0
11
1.3702096691395316
21
20.910638448000562
31
0
0
ARC
5
125
100
AcDbEntity
8
0
100
AcDbCircle
10
2.6645352591003757e-14
20
-2.2971377529763297e-15
30
0
40
10.999999999999995
210
0
220
0
230
1
100
AcDbArc
50
-82.844392202642553
51
82.844392202643022
0
LINE
5
126
100
AcDbEntity
8
0
100
AcDbLine
10
1.3702096691304091
20
-35.012864145518975
30
0
11
1.3702096691303109
21
-10.914326615170623
31
0
0
LINE
5
127
100
AcDbEntity
8
0
100
AcDbLine
10
5.0339105639403599
20
-34.932572482921969
30
0
11
1.3702096691304091
21
-35.012864145518975
31
0
0
LINE
5
128
100
AcDbEntity
8
0
100
AcDbLine
10
10.033910563940358
20
-34.932572482921969
30
0
11
5.0339105639403599
21
-34.932572482921969
31
0
0
LINE
5
129
100
AcDbEntity
8
0
100
AcDbLine
10
0.033910563940351135
20
-52.253080558610762
30
0
11
10.033910563940358
21
-34.932572482921969
31
0
0
ENDSEC
0
SECTION
2
OBJECTS
0
DICTIONARY
5
C
100
AcDbDictionary
3
ACAD_GROUP
350
D
3
ACAD_MLINESTYLE
350
17
0
DICTIONARY
5
D
100
AcDbDictionary
0
DICTIONARY
5
1A
330
C
100
AcDbDictionary
0
DICTIONARY
5
17
100
AcDbDictionary
0
ENDSEC
0
EOF
